<?xml version="1.0" encoding="utf-8"?>
<svg viewBox="0 0 500 500" xmlns="http://www.w3.org/2000/svg" xmlns:bx="https://boxy-svg.com">
  <defs>
    <path id="path-0" style="fill: none;" d="M 100.791 147.942 C 132.006 194.563 153.69 216.963 180.694 239.201 C 198.004 253.212 212.466 264.87 226.526 276.921 C 235.121 283.798 239.945 285.249 248.023 288.278 C 266.933 293.789 282.117 293.957 298.317 293.957 C 314.826 294.362 326.885 295.065 339.282 291.523 C 344.912 289.199 348.677 288.617 351.044 286.25 C 355.926 283.404 361.053 277.119 363.618 273.271 C 367.647 268.837 369.024 263.809 372.135 260.698 C 374.15 255.06 375.819 250.051 377.408 245.285 C 380.086 237.251 381.631 230.184 383.898 223.383 C 386.07 210.35 385.52 199.635 385.52 188.907 C 384.147 173.3 380.95 160.703 375.38 149.564 C 367.867 132.574 356.787 124.178 344.96 115.899 C 320.538 102.905 298.492 97.06 276.415 90.752 C 255.141 86.801 240.337 86.69 224.498 91.969 C 210.046 98.221 202.644 105.072 193.673 112.249 C 189.096 119.471 187.168 124.049 184.75 130.095 C 184.344 150.984 189.155 163.56 198.54 179.984 C 228.138 218.409 261.821 238.959 296.694 258.67 C 313.942 266.472 322.126 270.332 331.17 272.054 C 332.632 272.333 341.716 274.006 341.716 271.243 C 345.788 252.099 327.317 232.461 316.974 219.732 C 294.65 197.451 277.895 181.034 258.568 169.438 L 257.351 169.033 L 256.946 168.627"/>
    <path id="path-1" style="fill: none;" d="M 143.784 179.803 C 149.6 188.864 153.418 192.682 157.169 196.433 C 160.386 198.65 161.837 202.012 164.47 203.328 C 167.13 204.861 168.36 207.91 170.554 209.006 C 173.277 212.136 175.141 214.405 177.449 216.713 C 180.92 220.184 183.832 222.285 186.372 224.825 C 188.708 226.196 190.155 228.202 191.239 229.286 C 192.846 230.487 196.123 233.748 196.917 233.748 C 199.177 235.081 201.387 236.19 202.596 237.398 C 203.009 238.217 206.535 240.643 206.652 240.643 C 209.414 242.999 211.885 244.66 213.953 246.727 C 217.188 249.556 220.959 252.055 224.093 253.622 C 228.55 257.268 234.005 257.856 237.072 260.923 C 240.73 263.77 247.912 265.908 251.673 267.412 C 259.281 270.811 265.756 272.64 271.953 275.119 C 279.897 277.902 285.747 280.494 291.827 282.014 C 299.305 284.371 306.325 285.259 312.513 285.259 C 323.992 285.664 332.535 285.12 341.716 282.825 C 349.098 280.116 355.718 277.405 359.562 272.28 C 365.08 266.762 368.099 261.23 369.296 255.245 C 371.458 249.57 373.215 245.922 374.569 241.86 C 375.951 238.284 377.814 233.987 377.814 230.909 C 378.219 228.927 379.436 226.168 379.436 224.825"/>
    <path id="path-2" style="fill: none;" d="M 161.225 181.831 C 162.129 185.169 162.036 187.904 162.036 189.132 C 162.912 189.538 163.162 194.224 163.658 195.216 C 164.064 197.954 166.498 200.356 166.498 202.923 C 167.632 205.92 168.578 210.276 170.148 211.846 C 172.433 216.415 174.366 219.876 176.232 223.608 C 178.701 226.077 181.858 230.752 182.722 233.342 C 185.232 237.31 187.741 240.39 190.428 243.077 C 193.426 247.371 197.49 250.544 200.973 254.028 C 204.665 257.314 207.995 260.58 211.113 262.14 C 214.616 265.237 218.087 267.735 221.253 269.846 C 224.375 272.562 228.456 275.678 231.393 277.147 C 236.088 280.277 239.438 282.589 243.156 284.448 C 248.233 286.986 252.236 289.596 256.54 291.748 C 260.792 293.874 264.652 295.264 267.897 297.427 C 272.109 299.33 275.369 299.946 278.443 301.483 C 284.906 303.908 290.58 305.726 295.072 307.972 C 298.962 310.646 304.691 310.908 308.051 312.028 C 309.594 313.166 315.783 314.056 317.38 314.056 C 322.214 315.532 325.588 315.727 328.737 317.301 C 332.247 318.471 338.98 319.433 340.499 320.951 C 343.696 323.743 350.072 322.412 352.667 325.007 L 353.072 325.007 C 353.618 325.28 355.912 325.414 355.912 325.818"/>
    <path id="path-3" style="fill: none;" d="M 162.442 162.363 C 166.907 176.164 173.386 183.747 177.854 191.566 C 185.965 200.488 190.785 209.364 197.729 216.307 C 204.535 223.114 209.996 228.98 215.575 234.559 C 223.447 240.869 228.911 246.688 235.044 251.594 C 242.323 258.063 249.098 261.019 254.918 265.385 C 261.039 269.976 266.113 273.01 271.142 275.524 C 276.795 277.544 280.919 281.623 285.743 283.231 C 291.685 285.346 296.399 289.241 301.562 290.532 C 307.709 292.851 312.715 294.892 316.974 297.021 C 323.137 299.069 327.63 301.114 332.387 302.699 C 335.259 304.479 341.205 307.161 343.744 307.161 C 347.733 307.567 352.331 310.294 355.1 311.217 C 357.572 311.623 363.396 313.429 364.429 314.462 C 366.763 314.867 368.747 316.895 370.513 316.895"/>
  </defs>
  <ellipse style="stroke: rgb(0, 0, 0);" cx="250" cy="250" rx="149.665" ry="149.665"/>
  <path d="M 207.041 49.246 H 277.647 V 221.609 H 450.009 V 292.215 H 277.647 V 464.577 H 207.041 V 292.215 H 34.678 V 221.609 H 207.041 Z" style="stroke: rgb(0, 0, 0); fill: rgb(255, 255, 255);" transform="matrix(0.707107, 0.707107, -0.707107, 0.707107, 261.112335, -103.026703)" bx:shape="cross 34.678 49.246 415.331 415.331 70.606 70.606 0.5 1@641eaf7e"/>
</svg>